<svg xmlns="http://www.w3.org/2000/svg" focusable="false" role="img" fill="currentColor" viewBox="0 0 24 24" aria-hidden="true" class="css-1f4rn1b eac13zx0"><path fill-rule="evenodd" d="M12 22c5.5228 0 10-4.4772 10-10 0-5.5229-4.4772-10-10-10C6.4771 2 2 6.4771 2 12c0 5.5228 4.4771 10 10 10zM8.4643 9.879c-.3905-.3905-.3905-1.0237 0-1.4142.3905-.3906 1.0237-.3906 1.4142 0L12 10.5863l2.1214-2.1214c.3905-.3905 1.0236-.3905 1.4142 0 .3905.3905.3905 1.0237 0 1.4142l-2.1214 2.1214 2.1211 2.1211c.3906.3905.3906 1.0237 0 1.4142-.3905.3906-1.0236.3906-1.4142 0L12 13.4147 9.8787 15.536c-.3905.3905-1.0237.3905-1.4142 0-.3905-.3905-.3905-1.0237 0-1.4142l2.1213-2.1213L8.4643 9.879z" clip-rule="evenodd"></path></svg>