<svg xmlns="http://www.w3.org/2000/svg" focusable="false" role="img" fill="currentColor" viewBox="0 0 24 24" aria-hidden="true" class="gnav-header-1hdbuey eac13zx0"><path d="M4.9289 4.9286c-.3905.3906-.3905 1.0237 0 1.4143L10.586 12 4.9292 17.657c-.3905.3905-.3905 1.0237 0 1.4142.3905.3905 1.0237.3905 1.4142 0l5.6569-5.6569 5.6565 5.6565c.3905.3905 1.0237.3905 1.4142 0 .3905-.3906.3905-1.0237 0-1.4142l-5.6564-5.6565 5.6568-5.6568c.3905-.3905.3905-1.0237 0-1.4142-.3906-.3906-1.0237-.3906-1.4143 0l-5.6568 5.6568-5.6572-5.6573c-.3905-.3905-1.0237-.3905-1.4142 0z"></path></svg>